<svg width="24" height="25" viewBox="0 0 24 25" fill="none" xmlns="http://www.w3.org/2000/svg">
<path opacity="0.15" d="M4 10.0566L12 3.05664L20 10.0566L20 20.0566H15V16.0566C15 15.261 14.6839 14.4979 14.1213 13.9353C13.5587 13.3727 12.7957 13.0566 12 13.0566C11.2044 13.0566 10.4413 13.3727 9.87868 13.9353C9.31607 14.4979 9 15.261 9 16.0566V20.0566H4L4 10.0566Z" fill="#757095"/>
<path d="M4 10.0566L12 3.05664L20 10.0566L20 20.0566H15V16.0566C15 15.261 14.6839 14.4979 14.1213 13.9353C13.5587 13.3727 12.7957 13.0566 12 13.0566C11.2044 13.0566 10.4413 13.3727 9.87868 13.9353C9.31607 14.4979 9 15.261 9 16.0566V20.0566H4L4 10.0566Z" stroke="#757095" stroke-width="1.5" stroke-linecap="round" stroke-linejoin="round"/>
</svg>
