<svg width="16" height="22" viewBox="0 0 16 22" fill="none" xmlns="http://www.w3.org/2000/svg">
<path d="M14.19 11.4966L10.95 9.87664C12.24 8.87664 13.07 7.31664 13.07 5.55664C13.07 2.52664 10.6 0.0566406 7.57 0.0566406C4.54 0.0566406 2.07 2.52664 2.07 5.55664C2.07 7.68664 3.29 9.53664 5.07 10.4466V13.7066C2.99 13.2666 3.06 13.2666 2.81 13.2666C2.28 13.2666 1.78 13.4766 1.4 13.8566L0 15.2766L5.09 20.3666C5.52 20.8066 6.12 21.0566 6.74 21.0566H13.04C14.02 21.0566 14.85 20.3566 15.01 19.3866L15.81 14.6766C16.03 13.3766 15.38 12.0966 14.19 11.4966ZM4.07 5.55664C4.07 3.62664 5.64 2.05664 7.57 2.05664C9.5 2.05664 11.07 3.62664 11.07 5.55664C11.07 6.50664 10.69 7.36664 10.07 7.99664V5.55664C10.07 4.17664 8.95 3.05664 7.57 3.05664C6.19 3.05664 5.07 4.17664 5.07 5.55664V7.99664C4.45 7.36664 4.07 6.50664 4.07 5.55664ZM13.84 14.3466L13.04 19.0566H6.74C6.65 19.0566 6.57 19.0166 6.5 18.9566L2.82 15.2766L7.07 16.1666V5.55664C7.07 5.27664 7.29 5.05664 7.57 5.05664C7.85 5.05664 8.07 5.27664 8.07 5.55664V11.5566H9.83L13.29 13.2866C13.69 13.4866 13.91 13.9166 13.84 14.3466Z" fill="#757095"/>
<path opacity="0.3" d="M13.3003 13.2866L9.84031 11.5566H8.07031V5.55664C8.07031 5.27664 7.85031 5.05664 7.57031 5.05664C7.29031 5.05664 7.07031 5.27664 7.07031 5.55664V16.1666L2.82031 15.2766L6.50031 18.9566C6.56031 19.0166 6.65031 19.0566 6.74031 19.0566H13.0403L13.8403 14.3466C13.9103 13.9166 13.6903 13.4866 13.3003 13.2866Z" fill="#757095"/>
</svg>
