<svg width="44" height="44" viewBox="0 0 44 44" fill="none" xmlns="http://www.w3.org/2000/svg">
<rect width="44" height="44" rx="22" fill="#FF461E"/>
<path d="M29 27V29H17V27C17 27 17 23 23 23C29 23 29 27 29 27ZM26 18C26 17.4067 25.8241 16.8266 25.4944 16.3333C25.1648 15.8399 24.6962 15.4554 24.1481 15.2284C23.5999 15.0013 22.9967 14.9419 22.4147 15.0576C21.8328 15.1734 21.2982 15.4591 20.8787 15.8787C20.4591 16.2982 20.1734 16.8328 20.0576 17.4147C19.9419 17.9967 20.0013 18.5999 20.2284 19.1481C20.4554 19.6962 20.8399 20.1648 21.3333 20.4944C21.8266 20.8241 22.4067 21 23 21C23.7956 21 24.5587 20.6839 25.1213 20.1213C25.6839 19.5587 26 18.7957 26 18ZM29.2 23.06C29.7466 23.5643 30.1873 24.1724 30.4964 24.8489C30.8054 25.5254 30.9766 26.2566 31 27V29H34V27C34 27 34 23.55 29.2 23.06ZM28 15C27.6979 15.0002 27.3976 15.0474 27.11 15.14C27.6951 15.979 28.0087 16.9772 28.0087 18C28.0087 19.0228 27.6951 20.021 27.11 20.86C27.3976 20.9526 27.6979 20.9998 28 21C28.7956 21 29.5587 20.6839 30.1213 20.1213C30.6839 19.5587 31 18.7957 31 18C31 17.2044 30.6839 16.4413 30.1213 15.8787C29.5587 15.3161 28.7956 15 28 15ZM18 20H15V17H13V20H10V22H13V25H15V22H18V20Z" fill="white"/>
</svg>
