<svg width="19" height="19" viewBox="0 0 19 19" fill="none" xmlns="http://www.w3.org/2000/svg">
<path d="M1.5 17H2.6L13.675 5.92505L12.575 4.82505L1.5 15.9V17ZM16.85 4.85005L13.65 1.65005L14.7 0.600049C14.9833 0.316716 15.3333 0.175049 15.75 0.175049C16.1667 0.175049 16.5167 0.316716 16.8 0.600049L17.9 1.70005C18.1833 1.98338 18.325 2.33338 18.325 2.75005C18.325 3.16672 18.1833 3.51672 17.9 3.80005L16.85 4.85005ZM15.8 5.90005L3.2 18.5H0V15.3L12.6 2.70005L15.8 5.90005ZM13.125 5.37505L12.575 4.82505L13.675 5.92505L13.125 5.37505Z" fill="#003075"/>
</svg>
