<svg width="30" height="30" viewBox="0 0 30 30" fill="none" xmlns="http://www.w3.org/2000/svg">
<path d="M5.86249 22.9688C7.34999 21.9299 8.82569 21.133 10.2896 20.5781C11.7535 20.0233 13.3236 19.7458 15 19.7458C16.6764 19.7458 18.2524 20.0233 19.7281 20.5781C21.2038 21.133 22.6854 21.9299 24.1729 22.9688C25.2118 21.6938 25.9496 20.407 26.3865 19.1083C26.8233 17.8097 27.0417 16.4403 27.0417 15C27.0417 11.5764 25.8906 8.71355 23.5885 6.41147C21.2865 4.10939 18.4236 2.95834 15 2.95834C11.5764 2.95834 8.71354 4.10939 6.41145 6.41147C4.10937 8.71355 2.95833 11.5764 2.95833 15C2.95833 16.4403 3.18263 17.8097 3.63124 19.1083C4.07986 20.407 4.82361 21.6938 5.86249 22.9688ZM14.9934 16.0625C13.6284 16.0625 12.4795 15.594 11.5469 14.657C10.6142 13.7199 10.1479 12.5689 10.1479 11.2038C10.1479 9.83879 10.6164 8.68994 11.5535 7.7573C12.4905 6.82466 13.6415 6.35834 15.0066 6.35834C16.3716 6.35834 17.5205 6.82686 18.4531 7.76389C19.3858 8.70092 19.8521 9.85196 19.8521 11.217C19.8521 12.5821 19.3836 13.7309 18.4465 14.6636C17.5095 15.5962 16.3585 16.0625 14.9934 16.0625ZM15.0166 29.1667C13.0694 29.1667 11.234 28.7948 9.51041 28.0511C7.7868 27.3073 6.28159 26.292 4.99479 25.0052C3.70798 23.7184 2.6927 22.216 1.94895 20.4979C1.2052 18.7798 0.833328 16.944 0.833328 14.9906C0.833328 13.0371 1.2052 11.2045 1.94895 9.49272C2.6927 7.78091 3.70798 6.28161 4.99479 4.9948C6.28159 3.708 7.78404 2.69272 9.50212 1.94897C11.2202 1.20522 13.056 0.833344 15.0094 0.833344C16.9629 0.833344 18.7955 1.20522 20.5073 1.94897C22.2191 2.69272 23.7184 3.708 25.0052 4.9948C26.292 6.28161 27.3073 7.78129 28.051 9.49385C28.7948 11.2064 29.1667 13.0363 29.1667 14.9834C29.1667 16.9306 28.7948 18.766 28.051 20.4896C27.3073 22.2132 26.292 23.7184 25.0052 25.0052C23.7184 26.292 22.2187 27.3073 20.5062 28.0511C18.7936 28.7948 16.9637 29.1667 15.0166 29.1667ZM15 27.0417C16.2986 27.0417 17.5677 26.8528 18.8073 26.475C20.0469 26.0972 21.2687 25.4361 22.4729 24.4917C21.2687 23.6417 20.041 22.9924 18.7896 22.5438C17.5382 22.0951 16.275 21.8708 15 21.8708C13.725 21.8708 12.4618 22.0951 11.2104 22.5438C9.95902 22.9924 8.73125 23.6417 7.52708 24.4917C8.73125 25.4361 9.95312 26.0972 11.1927 26.475C12.4323 26.8528 13.7014 27.0417 15 27.0417ZM15 13.9375C15.8028 13.9375 16.458 13.6837 16.9656 13.1761C17.4733 12.6684 17.7271 12.0132 17.7271 11.2104C17.7271 10.4076 17.4733 9.75244 16.9656 9.2448C16.458 8.73716 15.8028 8.48334 15 8.48334C14.1972 8.48334 13.542 8.73716 13.0344 9.2448C12.5267 9.75244 12.2729 10.4076 12.2729 11.2104C12.2729 12.0132 12.5267 12.6684 13.0344 13.1761C13.542 13.6837 14.1972 13.9375 15 13.9375Z" fill="#757095"/>
</svg>
