<svg width="64" height="24" viewBox="0 0 64 24" fill="none" xmlns="http://www.w3.org/2000/svg">
<g clip-path="url(#clip0_809_2894)">
<path d="M0 18.9936V0.671082H7.22554C8.91172 0.671082 10.2786 1.20404 11.3289 2.27126C12.3779 3.33847 12.903 4.64545 12.903 6.1935C12.903 8.49864 11.7068 10.0728 9.31567 10.9158L15.7932 18.9936H10.8637L4.7471 11.4319H4.10207V18.9936H0ZM4.10338 7.94874H6.73559C7.35454 7.94874 7.85753 7.78586 8.24585 7.45879C8.63286 7.13172 8.82702 6.71082 8.82702 6.19481C8.82702 5.64491 8.63286 5.21359 8.24585 4.90477C7.85883 4.59463 7.35585 4.44087 6.73559 4.44087H4.10338V7.95005V7.94874Z" fill="#006AFF"/>
<path d="M18.6835 4.85133C18.0293 4.85133 17.4612 4.61548 16.9803 4.14116C16.4982 3.66814 16.2571 3.09609 16.2571 2.42501C16.2571 1.75393 16.4982 1.18188 16.9803 0.708863C17.4612 0.235847 18.0293 -0.00131226 18.6835 -0.00131226C19.3715 -0.00131226 19.9527 0.235847 20.4257 0.708863C20.8987 1.18188 21.1358 1.75393 21.1358 2.42501C21.1358 3.09609 20.8987 3.66814 20.4257 4.14116C19.9527 4.61417 19.3715 4.85133 18.6835 4.85133ZM16.7484 18.9936V6.09055H20.6446V18.9936H16.7484Z" fill="#006AFF"/>
<path d="M23.845 24V6.09056H27.7412V6.89064C28.5491 6.16744 29.5642 5.80649 30.7864 5.80649C32.6446 5.80649 34.1666 6.46454 35.3537 7.78064C36.5408 9.09675 37.1337 10.6839 37.1337 12.5421C37.1337 14.4003 36.5395 15.9874 35.3537 17.3035C34.1666 18.6196 32.6433 19.2777 30.7864 19.2777C29.5472 19.2777 28.5321 18.9076 27.7412 18.1674V24H23.845ZM30.1935 15.7424C31.0536 15.7424 31.7546 15.4323 32.2967 14.8133C32.8388 14.1944 33.1098 13.4373 33.1098 12.5421C33.1098 11.6469 32.8388 10.8898 32.2967 10.2708C31.7546 9.65186 31.0536 9.34173 30.1935 9.34173C29.1954 9.34173 28.3784 9.74568 27.7425 10.5549V14.5032C28.3614 15.3293 29.1785 15.7424 30.1935 15.7424Z" fill="#006AFF"/>
<path d="M54.7604 18.9936V6.09055H58.6566V7.53566C58.8625 7.07177 59.2325 6.68866 59.7668 6.38765C60.2997 6.08664 60.8848 5.93549 61.522 5.93549C62.1071 5.93549 62.6322 6.02149 63.0961 6.19349L62.5032 9.83167C62.3651 9.72873 62.0042 9.67661 61.4191 9.67661C60.129 9.67661 59.2078 10.0636 58.6579 10.8376V18.9923H54.7617L54.7604 18.9936Z" fill="#006AFF"/>
<path d="M52.2024 9.18926L51.663 9.72873L50.6948 10.6969L50.6583 10.7334L50.1214 11.2703C50.2478 11.7016 50.3156 12.159 50.3156 12.6307C50.3156 15.2942 48.1486 17.4612 45.4838 17.4612C42.819 17.4612 40.6533 15.2942 40.6533 12.6307C40.6533 9.96719 42.8203 7.80018 45.4838 7.80018C46.5836 7.80018 47.6 8.17025 48.4131 8.79312L48.8978 8.30838L48.9317 8.2745L48.963 8.24323L49.8347 7.37147L50.3455 6.86067C49.032 5.75045 47.3354 5.08197 45.4851 5.08197C41.3231 5.08197 37.9377 8.46735 37.9377 12.6294C37.9377 16.7914 41.3231 20.1768 45.4851 20.1768C49.6471 20.1768 53.0338 16.7914 53.0338 12.6294C53.0338 11.3914 52.7341 10.2213 52.2024 9.18926Z" fill="#006AFF"/>
<path d="M52.7562 6.50494C52.4435 6.1922 51.9366 6.1922 51.6239 6.50494L45.6584 12.4704L44.483 11.295C44.1703 10.9823 43.6634 10.9823 43.3506 11.295C43.0379 11.6078 43.0379 12.1147 43.3506 12.4274L45.0876 14.1644C45.2453 14.3221 45.4525 14.4003 45.6584 14.399C45.8643 14.399 46.0715 14.3221 46.2291 14.1644L52.7562 7.63731C53.069 7.32457 53.069 6.81768 52.7562 6.50494Z" fill="#006AFF"/>
</g>
<defs>
<clipPath id="clip0_809_2894">
<rect width="63.0961" height="24" fill="white"/>
</clipPath>
</defs>
</svg>
