<svg width="198" height="180" viewBox="0 0 198 180" fill="none" xmlns="http://www.w3.org/2000/svg">
<g clip-path="url(#clip0_30_617)">
<rect x="9.71362" width="180" height="180" rx="90" fill="#006AFF"/>
<path d="M43.0833 129.381C43.0833 129.381 39.2821 125.82 37.8177 124.863C36.3533 123.906 33.0773 122.611 31.8532 122.49C30.6292 122.37 24.9007 124.031 24.9007 124.031C24.9007 124.031 16.4436 123.283 15.0237 124.271C13.6038 125.259 13.7195 126.283 14.316 127.035C14.9124 127.787 17.1958 127.547 19.724 127.587C22.2523 127.627 22.9244 127.863 22.9244 127.863L19.2522 131.775L28.7954 134.424L34.5818 134.206L36.6738 136.841L43.0833 129.381Z" fill="white"/>
<path d="M14.1069 120.545L14.3384 128.967L14.7434 130.013L18.9007 135.083L29.0403 134.41L20.9616 131.263L18.0907 129.082L16.9779 125.482C16.9779 125.482 17.3162 119.927 14.1069 120.545Z" fill="white"/>
<path d="M14.8101 130.209H12.3264C12.3264 130.209 9.1038 124.907 6.15719 126.71L6.83375 127.756C6.83375 127.756 5.49842 127.155 4.66162 128.272L12.7893 135.394H13.1632L21.8205 134.838L14.8101 130.209Z" fill="white"/>
<path d="M16.2834 131.82C16.0511 131.842 15.8178 131.851 15.5846 131.847C14.9969 131.852 14.4156 131.969 13.8709 132.189L13.7908 132.229L13.7374 132.154C13.4837 131.798 13.1765 131.419 12.8472 131.023C12.1928 130.209 11.5964 129.474 11.0979 128.86C10.8428 128.573 10.612 128.264 10.408 127.939C10.712 128.18 10.9882 128.455 11.2314 128.758C11.7077 129.287 12.3531 130.031 13.0385 130.881C13.359 131.281 13.6617 131.66 13.9288 132.038L13.7908 132.002C14.3644 131.774 14.9821 131.678 15.5979 131.722C15.8306 131.709 16.0635 131.743 16.2834 131.82Z" fill="#A3A3A3"/>
<path d="M33.8474 126.919C32.8666 127.253 31.9115 127.657 30.9898 128.13C30.1111 128.679 29.2749 129.294 28.4883 129.968C28.6514 129.707 28.8541 129.473 29.0892 129.274C29.6242 128.756 30.2224 128.307 30.8696 127.939C31.5185 127.569 32.2108 127.282 32.9305 127.084C33.225 126.979 33.5348 126.924 33.8474 126.919Z" fill="#A3A3A3"/>
<path d="M25.7463 124.738C25.3957 125.24 25.0074 125.715 24.5846 126.158C24.2212 126.653 23.8194 127.119 23.3828 127.551C23.6329 126.983 23.9792 126.462 24.4066 126.011C24.7769 125.513 25.2301 125.083 25.7463 124.738Z" fill="#A3A3A3"/>
<path d="M17.2805 132.995C17.211 132.937 17.147 132.873 17.0891 132.804L16.5639 132.221L15.7494 131.286L15.2419 130.703C15.0416 130.488 14.8572 130.259 14.69 130.017C14.3143 129.444 14.1118 128.775 14.1069 128.09C14.1069 127.373 14.0758 126.608 14.0624 125.802C14.0357 124.186 14.0045 122.41 13.9734 120.545V120.443H14.0669L14.3384 120.407C14.6375 120.372 14.9407 120.406 15.2247 120.506C15.5087 120.606 15.7659 120.771 15.9764 120.986C16.3534 121.407 16.6277 121.91 16.7776 122.455C17.0386 123.444 17.1408 124.469 17.0802 125.491V125.455C17.4942 126.817 17.8592 128.037 18.1708 129.06L18.1396 129.02L20.2272 130.654L20.7835 131.099C20.8503 131.147 20.9115 131.202 20.966 131.264C20.966 131.264 20.8904 131.228 20.7568 131.135L20.1782 130.721L18.0461 129.145V129.118C17.7257 128.099 17.3429 126.893 16.9111 125.526V125.491C16.9607 124.493 16.8541 123.495 16.5951 122.531C16.4634 122.018 16.2134 121.544 15.8651 121.146C15.6778 120.956 15.449 120.811 15.1966 120.723C14.9442 120.635 14.6749 120.606 14.4096 120.639L14.1648 120.67L14.2583 120.554C14.285 122.419 14.3072 124.195 14.325 125.811C14.3428 127.427 14.1425 128.927 14.8725 129.946C15.018 130.177 15.1786 130.399 15.3532 130.609L15.8473 131.206C16.15 131.571 16.4126 131.891 16.6307 132.163L17.1203 132.773C17.1826 132.84 17.2364 132.915 17.2805 132.995Z" fill="#A3A3A3"/>
<path d="M13.181 135.399C13.023 135.413 12.865 135.371 12.7359 135.278C12.3868 135.067 12.0666 134.811 11.7834 134.517C10.8572 133.557 10.006 132.527 9.23738 131.437C8.32045 130.164 7.55042 128.998 6.98513 128.139C6.71361 127.694 6.49996 127.355 6.35753 127.106C6.27102 126.985 6.20347 126.852 6.15723 126.71C6.26296 126.814 6.35562 126.931 6.43319 127.057L7.12311 128.045C7.7062 128.887 8.50295 130.044 9.41987 131.299C10.1839 132.385 11.0102 133.425 11.8947 134.415C12.1615 134.712 12.46 134.979 12.7849 135.212C12.9111 135.286 13.0437 135.348 13.181 135.399Z" fill="#A3A3A3"/>
<path d="M27.9719 129.964L23.4986 129.661L22.1632 125.998L21.9184 123.532C21.8662 122.948 21.5974 122.405 21.1649 122.01C20.7324 121.615 20.1676 121.395 19.5816 121.396H19.5371L19.7864 127.436L20.7077 131.188L24.3443 133.333H28.7954L27.9719 129.964Z" fill="white"/>
<path d="M27.9719 129.964L23.4986 129.661L22.1632 125.998L21.9184 123.532C21.8662 122.948 21.5974 122.405 21.1649 122.01C20.7324 121.615 20.1676 121.395 19.5816 121.396H19.5371L19.7864 127.436L20.7077 131.188L24.3443 133.333" fill="white"/>
<path d="M24.3444 133.333C24.2532 133.298 24.1653 133.255 24.0818 133.204L23.3518 132.799L20.6812 131.259H20.65V131.228C20.3785 130.151 20.0625 128.878 19.7109 127.48V127.458C19.6307 125.642 19.5417 123.59 19.4482 121.418V121.302H19.564C19.604 121.302 19.653 121.302 19.6975 121.302C20.2355 121.321 20.7523 121.517 21.1682 121.858C21.5841 122.2 21.8759 122.67 21.9987 123.194C22.0512 123.436 22.0855 123.681 22.1011 123.928L22.1679 124.64C22.2168 125.085 22.2569 125.566 22.3014 126.007V125.98C22.791 127.347 23.2317 128.584 23.6367 129.657L23.561 129.599L26.8326 129.857L27.7228 129.942C27.8264 129.946 27.9293 129.961 28.0299 129.986C27.9263 129.997 27.8219 129.997 27.7184 129.986L26.8281 129.946L23.5566 129.764H23.4542V129.715C23.0581 128.646 22.6041 127.413 22.1189 126.056V126.029C22.0744 125.584 22.0254 125.139 21.9765 124.663C21.9542 124.427 21.9275 124.191 21.9052 123.95C21.8891 123.714 21.8564 123.479 21.8073 123.247C21.6954 122.772 21.4304 122.347 21.0532 122.037C20.676 121.728 20.2075 121.551 19.7198 121.533H19.5373L19.6485 121.413C19.7331 123.581 19.8177 125.637 19.8889 127.453C20.2272 128.855 20.5299 130.124 20.7791 131.21L20.7391 131.157L23.383 132.759L24.0952 133.204C24.1835 133.236 24.2673 133.28 24.3444 133.333Z" fill="#A3A3A3"/>
<path d="M123.79 58.6886C119.958 44.0757 116.419 27.0859 95.0498 28.5993C95.0498 28.5993 81.8835 31.132 75.6342 40.8487C71.9531 46.5639 68.7662 71.2051 68.1341 90.6652C68.1074 91.4575 68.4368 96.9813 68.4145 97.7558L124.97 102.465H135.176C135.176 102.465 134.54 92.143 131.469 82.128C128.464 72.3935 125.148 63.843 123.79 58.6886Z" fill="#263238"/>
<path d="M92.21 34.1676L93.5454 32.8901L107.989 38.7121C108.997 38.7684 109.948 39.2005 110.653 39.9231C111.359 40.6457 111.767 41.6065 111.799 42.6157L111.67 89.6815C111.67 92.8729 111.051 95.6371 109.124 98.1786L107.094 100.849C102.47 106.956 92.9534 106.453 89.2901 99.7276C89.0696 99.3444 88.8991 98.9345 88.7827 98.508C88.6906 98.1622 88.6178 97.8115 88.5646 97.4575C88.1195 93.6697 88.1195 90.3848 88.1195 90.3848C87.8613 86.2275 87.7768 84.5227 87.7768 84.5628C87.7768 84.6028 78.928 83.5435 76.5378 72.1887C75.3493 66.5403 75.5719 58.7687 75.9057 51.1218C76.3597 40.5504 83.704 34.1542 92.21 34.1676Z" fill="white"/>
<path d="M95.9265 58.6842C95.9427 59.0667 96.1076 59.4278 96.3862 59.6905C96.6647 59.9533 97.0348 60.0969 97.4176 60.0907C97.6051 60.0967 97.7918 60.0649 97.9668 59.9974C98.1418 59.9299 98.3015 59.828 98.4364 59.6977C98.5712 59.5674 98.6786 59.4113 98.7521 59.2387C98.8256 59.0662 98.8637 58.8806 98.8642 58.6931C98.8481 58.3109 98.6839 57.95 98.4065 57.6867C98.129 57.4234 97.7601 57.2783 97.3776 57.2821C97.1895 57.2761 97.0022 57.308 96.8267 57.3757C96.6511 57.4434 96.491 57.5457 96.3557 57.6764C96.2204 57.8072 96.1127 57.9637 96.039 58.1368C95.9653 58.3099 95.927 58.496 95.9265 58.6842Z" fill="#263238"/>
<path d="M80.8464 59.0758C80.8604 59.4588 81.0238 59.821 81.3018 60.0848C81.5797 60.3486 81.95 60.4929 82.3331 60.4868C82.5206 60.4922 82.7073 60.4601 82.8823 60.3924C83.0572 60.3247 83.2169 60.2228 83.3521 60.0927C83.4872 59.9625 83.595 59.8067 83.6692 59.6344C83.7434 59.4621 83.7824 59.2768 83.7841 59.0892C83.7691 58.7059 83.6047 58.3436 83.326 58.08C83.0474 57.8163 82.6766 57.6721 82.293 57.6782C82.1056 57.6722 81.9188 57.704 81.7438 57.7715C81.5689 57.839 81.4092 57.9409 81.2743 58.0712C81.1394 58.2016 81.032 58.3576 80.9586 58.5302C80.8851 58.7027 80.8469 58.8883 80.8464 59.0758Z" fill="#263238"/>
<path d="M77.4102 54.1574C77.6016 54.3399 78.6699 53.4586 80.25 53.3874C81.8301 53.3162 83.0275 54.0417 83.1922 53.8325C83.2723 53.7435 83.0675 53.3874 82.5467 53.0625C81.8376 52.6243 81.011 52.4145 80.1788 52.4616C79.3573 52.4982 78.5693 52.7978 77.931 53.3162C77.4636 53.7212 77.3123 54.0773 77.4102 54.1574Z" fill="#263238"/>
<path d="M93.0779 53.6055C93.2871 53.7657 94.2663 52.782 95.8287 52.5461C97.391 52.3102 98.6596 52.9156 98.7975 52.6975C98.8688 52.5995 98.6328 52.2835 98.0765 51.9986C97.3277 51.6358 96.4856 51.5115 95.664 51.6425C94.8494 51.7656 94.0949 52.1444 93.5096 52.7242C93.0912 53.1604 92.98 53.5476 93.0779 53.6055Z" fill="#263238"/>
<path d="M87.9237 65.8193C87.9237 65.7302 86.9355 65.6101 85.3331 65.4854C84.9281 65.4632 84.5408 65.4053 84.4429 65.1338C84.3862 64.7183 84.4593 64.2955 84.6521 63.9231C84.9815 62.9261 85.3287 61.8845 85.6892 60.8073C87.1269 56.3563 88.1462 52.6975 87.9682 52.6396C87.7901 52.5817 86.4771 56.1515 85.0394 60.607C84.6922 61.7065 84.3628 62.7525 84.0512 63.754C83.9221 64.2213 83.6862 64.7555 83.9221 65.3475C83.987 65.4867 84.0829 65.6093 84.2025 65.7057C84.3221 65.8022 84.4622 65.8699 84.6121 65.9038C84.8386 65.9528 85.0703 65.9737 85.302 65.9662C86.9266 65.9528 87.9192 65.9127 87.9237 65.8193Z" fill="#263238"/>
<path d="M87.7678 84.5716C93.1654 84.3856 98.405 82.7027 102.901 79.7111C102.901 79.7111 99.4475 87.8298 87.937 87.3358L87.7678 84.5716Z" fill="#A3A3A3"/>
<path d="M92.8599 69.033C92.629 68.7676 92.3466 68.5519 92.0298 68.3989C91.7131 68.2459 91.3686 68.1588 91.0171 68.1428C90.0246 68.0849 89.3257 68.2095 88.7916 68.9929C88.6875 69.1864 88.6239 69.3991 88.6048 69.618C88.5856 69.8368 88.6113 70.0573 88.6803 70.2659C88.7961 70.4484 88.7115 70.4529 88.8895 70.582C89.5352 71.0344 90.2646 71.3536 91.035 71.5211C91.8005 71.6947 92.6819 71.5211 93.078 70.8935C93.2344 70.5978 93.2973 70.2616 93.2583 69.9294C93.2194 69.5971 93.0804 69.2845 92.8599 69.033Z" fill="#FF8E8E"/>
<path d="M92.6995 46.3636C92.9043 46.7642 94.2618 46.3636 95.9354 46.319C97.6091 46.2745 99.0022 46.5861 99.1625 46.1722C99.2337 45.9763 98.9399 45.6113 98.3435 45.2819C97.5738 44.8813 96.7136 44.6865 95.8464 44.7167C94.9895 44.7341 94.1525 44.9783 93.4206 45.4244C92.8598 45.7894 92.6105 46.1677 92.6995 46.3636Z" fill="#263238"/>
<path d="M77.6372 51.2998C77.931 51.6425 79.0037 51.2152 80.3079 51.1351C81.612 51.055 82.7337 51.2508 82.9785 50.8636C83.0809 50.6767 82.8895 50.325 82.3865 50.009C81.7188 49.6268 80.9492 49.4605 80.1832 49.5327C79.415 49.5827 78.6818 49.8722 78.0868 50.3606C77.6372 50.7523 77.5037 51.1307 77.6372 51.2998Z" fill="#263238"/>
<path d="M111.51 62.7035C111.51 62.7035 105.43 64.1724 96.8212 45.5891C93.8835 39.2641 88.1816 32.8902 88.1816 32.8902L93.5229 32.1201C93.5229 32.1201 109.48 36.6157 109.747 36.816C110.014 37.0163 113.775 45.0683 113.775 45.0683L111.51 62.7035Z" fill="#263238"/>
<path d="M109.516 61.9602C109.476 61.1056 110.361 59.0448 111.194 58.8712C113.419 58.4261 117.488 58.386 117.813 64.0968C118.258 71.8995 110.33 70.7333 110.304 70.5108C110.277 70.2882 109.658 64.9024 109.516 61.9602Z" fill="white"/>
<path d="M112.52 67.4038C112.551 67.3771 112.658 67.4928 112.894 67.5863C113.226 67.7055 113.592 67.6911 113.914 67.5462C114.719 67.1991 115.338 65.8504 115.298 64.4305C115.278 63.7599 115.111 63.102 114.808 62.5032C114.721 62.2638 114.577 62.0492 114.389 61.8779C114.2 61.7065 113.973 61.5835 113.727 61.5195C113.568 61.4867 113.402 61.5106 113.259 61.5871C113.116 61.6635 113.004 61.7876 112.943 61.9379C112.85 62.1604 112.912 62.3162 112.867 62.3296C112.823 62.3429 112.694 62.2094 112.738 61.8845C112.771 61.6881 112.87 61.5088 113.019 61.377C113.12 61.29 113.237 61.2239 113.364 61.1826C113.491 61.1414 113.625 61.1258 113.758 61.1367C114.082 61.1809 114.389 61.3077 114.65 61.5049C114.912 61.7021 115.118 61.9631 115.249 62.2628C115.617 62.9209 115.821 63.6587 115.841 64.4127C115.881 65.9884 115.16 67.5062 114.06 67.8934C113.854 67.9662 113.635 67.992 113.418 67.9688C113.2 67.9457 112.991 67.8744 112.805 67.7599C112.543 67.6086 112.476 67.435 112.52 67.4038Z" fill="#A3A3A3"/>
<path d="M93.8657 69.349C93.8435 69.5493 92.5081 69.5181 90.928 69.8253C89.3479 70.1324 88.1105 70.6265 88.0125 70.4529C87.9146 70.2793 89.0853 69.4603 90.7989 69.1443C92.5126 68.8282 93.9013 69.1843 93.8657 69.349Z" fill="#263238"/>
<path d="M154.846 129.817C154.846 129.817 161.38 124.222 163.276 124.071C165.172 123.919 170.149 124.85 170.149 124.85C170.149 124.85 173.295 124.876 174.858 124.68C176.489 124.421 178.156 124.503 179.754 124.921C180.226 125.063 180.818 126.234 179.429 127.035C178.841 127.373 173.126 127.761 173.126 127.761L187.423 131.842L185.567 133.373C185.316 133.581 185.003 133.699 184.677 133.707L164.108 134.437L163.165 136.738L154.846 129.817Z" fill="white"/>
<path d="M170.451 129.821H177.128C177.128 129.821 179.469 126.706 180.315 125.419C181.058 124.284 181.948 123.95 182.727 124.217C182.93 124.292 183.1 124.437 183.204 124.627C183.278 124.763 183.317 124.917 183.317 125.072C183.317 125.228 183.278 125.381 183.204 125.517L180.266 130.996L181.806 130.48C181.806 130.48 184.886 127.462 185.487 126.763C186.088 126.065 188.278 123.127 190.218 125.268L187.548 128.259L190.218 126.363C190.218 126.363 192.364 124.52 193.508 126.714L185.496 133.462" fill="white"/>
<path d="M163.499 127.048C163.584 127.007 163.673 126.976 163.766 126.955C164.024 126.868 164.291 126.807 164.562 126.772C165.571 126.637 166.598 126.744 167.558 127.084C168.228 127.316 168.874 127.614 169.485 127.974C169.815 128.17 170.148 128.384 170.487 128.62L170.994 128.98C171.154 129.096 171.355 129.247 171.484 129.318C173.175 129.447 175.111 129.563 177.137 129.706L177.039 129.746C177.666 129.002 178.281 128.192 178.877 127.351C179.113 127.022 179.322 126.688 179.549 126.358C179.776 126.029 179.968 125.686 180.208 125.375C180.437 125.051 180.7 124.753 180.991 124.485C181.14 124.355 181.303 124.243 181.476 124.151C181.662 124.044 181.877 123.995 182.091 124.013H182.051C182.235 123.982 182.423 123.988 182.604 124.032C182.785 124.076 182.956 124.155 183.106 124.266C183.239 124.393 183.34 124.55 183.401 124.723C183.462 124.896 183.481 125.081 183.457 125.263V125.286C182.184 127.565 181.076 129.55 180.221 131.072C180.128 131.354 179.974 131.611 179.77 131.826C179.566 132.042 179.318 132.21 179.042 132.318C178.643 132.484 178.218 132.575 177.787 132.586C177.521 132.6 177.255 132.6 176.99 132.586C176.897 132.588 176.804 132.579 176.714 132.559H176.99C177.168 132.559 177.435 132.559 177.782 132.528C178.201 132.503 178.612 132.405 178.997 132.238C179.251 132.13 179.479 131.969 179.666 131.766C179.852 131.562 179.993 131.321 180.079 131.059L183.248 125.215V125.255C183.267 125.108 183.251 124.959 183.203 124.819C183.154 124.679 183.073 124.552 182.968 124.449C182.708 124.269 182.388 124.199 182.077 124.253H182.042C181.885 124.251 181.731 124.292 181.597 124.373C181.435 124.455 181.285 124.558 181.152 124.68C180.87 124.93 180.618 125.211 180.399 125.517C179.954 126.14 179.554 126.853 179.064 127.493C178.463 128.344 177.844 129.149 177.208 129.902L177.172 129.946H177.114C175.076 129.795 173.18 129.679 171.435 129.523C171.236 129.418 171.048 129.293 170.874 129.149L170.371 128.789C170.042 128.553 169.712 128.344 169.392 128.143C168.794 127.784 168.162 127.486 167.505 127.253C166.567 126.905 165.562 126.778 164.567 126.879C164.299 126.907 164.035 126.954 163.775 127.022C163.683 127.037 163.591 127.046 163.499 127.048Z" fill="#A3A3A3"/>
<path d="M190.232 125.268C190.164 125.401 190.077 125.524 189.974 125.633C189.791 125.86 189.528 126.185 189.195 126.577C188.536 127.369 187.61 128.45 186.573 129.634C185.536 130.818 184.646 131.94 183.876 132.643C183.58 132.928 183.258 133.185 182.914 133.409C182.792 133.499 182.653 133.563 182.505 133.596C182.619 133.5 182.739 133.413 182.865 133.333C183.181 133.085 183.478 132.814 183.755 132.523C184.481 131.802 185.327 130.658 186.386 129.488C187.445 128.317 188.371 127.235 189.057 126.47L189.885 125.58C189.986 125.461 190.103 125.356 190.232 125.268Z" fill="#A3A3A3"/>
<path d="M186.569 125.579C186.332 125.924 186.061 126.244 185.758 126.532C185.238 127.102 184.503 127.867 183.684 128.722C183.012 129.416 182.385 130.057 181.904 130.542C181.373 130.757 180.819 130.906 180.252 130.988C180.395 130.916 180.544 130.858 180.698 130.814L181.864 130.369L181.828 130.391C182.309 129.875 182.923 129.229 183.609 128.539C184.428 127.694 185.18 126.937 185.732 126.398C185.987 126.103 186.267 125.829 186.569 125.579Z" fill="#A3A3A3"/>
<path d="M132.692 96.603C132.692 96.603 142.289 99.0778 143.228 112.119C143.767 119.553 139.81 143.424 139.81 143.424L153.982 128.869L166.614 137.655C166.614 137.655 149.42 158.651 145.467 161.825C141.515 164.998 135.176 170.064 133.129 169.65C131.081 169.236 131.072 159.764 131.072 159.764V107.464L132.692 96.603Z" fill="#C7353E"/>
<path d="M63.7008 98.2009C63.7008 98.2009 55.1636 101.01 55.5019 117.701C55.8402 134.393 55.5775 139.997 55.5775 139.997L42.7807 126.452L32.1604 138.176C32.1604 138.176 44.0537 155.847 52.3728 164.437C60.2156 172.525 67.186 165.501 69.4516 159.813C71.2854 155.206 72.7632 137.686 72.7632 137.686L63.7008 98.2009Z" fill="#C7353E"/>
<g opacity="0.3">
<path d="M133.436 126.648C134.21 121.752 134.415 116.45 132.185 111.959C126.715 125.482 126.96 141.011 128.918 155.339L133.253 167.736C135.986 159.43 133.391 150.581 133.449 141.919C133.485 136.983 132.666 131.531 133.436 126.648Z" fill="black"/>
</g>
<path d="M61.9248 108.821C61.9248 108.821 67.6311 147.207 68.735 150.568C69.8388 153.928 69.8388 163.837 69.8388 163.837C69.8388 163.837 63.8521 174.991 63.4827 182.74L135.621 182.892L130.934 151.035C130.785 149.024 130.75 147.006 130.828 144.991C131.13 139.378 131.562 127.347 133.173 119.949C135.043 111.349 132.523 96.6341 132.523 96.6341L110.976 91.324C105.875 98.6549 93.1714 98.7528 88.1328 91.324L63.8121 98.2009L61.9248 108.821Z" fill="#C7353E"/>
<path d="M132.35 149.513C132.402 149.388 132.474 149.272 132.564 149.17C132.715 148.961 132.942 148.658 133.227 148.28C133.967 147.315 134.796 146.421 135.702 145.609C136.623 144.817 137.651 144.156 138.755 143.647C139.2 143.46 139.529 143.317 139.774 143.237C139.899 143.183 140.031 143.146 140.166 143.126C140.215 143.219 137.98 143.936 135.853 145.796C134.961 146.599 134.126 147.462 133.351 148.378C133.045 148.78 132.71 149.159 132.35 149.513Z" fill="#263238"/>
<path d="M65.5481 148.698C65.5036 148.698 65.3389 147.919 64.7914 146.749C64.0858 145.22 63.0551 143.864 61.7713 142.774C60.4874 141.685 58.9813 140.889 57.3581 140.442C56.1118 140.094 55.3017 140.059 55.3106 139.997C55.4983 139.973 55.6882 139.973 55.8759 139.997C56.3895 140.041 56.8986 140.127 57.3982 140.255C59.0651 140.665 60.6144 141.456 61.9249 142.565C63.2287 143.679 64.2609 145.077 64.9428 146.651C65.1481 147.124 65.3163 147.612 65.4457 148.111C65.5058 148.301 65.5402 148.499 65.5481 148.698Z" fill="#263238"/>
<path d="M66.0109 127.899C65.8919 127.858 65.7806 127.798 65.6815 127.721C65.4812 127.596 65.1963 127.4 64.8536 127.142C63.9671 126.47 63.1378 125.725 62.3743 124.916C61.6154 124.108 60.9036 123.256 60.2423 122.366C59.9469 122.011 59.6875 121.628 59.4678 121.222C59.7888 121.548 60.0863 121.896 60.358 122.263C60.901 122.918 61.6488 123.817 62.5346 124.756C63.2927 125.556 64.0983 126.31 64.9471 127.013C65.3178 127.288 65.673 127.584 66.0109 127.899Z" fill="#263238"/>
<path d="M116.366 148.676C116.366 148.676 116.366 148.707 116.308 148.765L116.121 149.01C115.943 149.219 115.707 149.549 115.36 149.931C114.396 151.033 113.355 152.063 112.244 153.016C110.589 154.436 108.826 155.725 106.97 156.871C104.704 158.263 102.364 159.531 99.9594 160.667C97.4045 161.883 94.9386 162.964 92.7042 163.97C90.4697 164.976 88.4712 165.897 86.8198 166.73C85.1685 167.562 83.851 168.274 82.9518 168.791C82.5067 169.04 82.1595 169.236 81.9236 169.387L81.6521 169.538C81.5898 169.57 81.5587 169.587 81.5542 169.583C81.5787 169.558 81.6073 169.536 81.6388 169.521L81.8969 169.347C82.1284 169.2 82.4622 168.978 82.9073 168.71C83.7975 168.172 85.0973 167.429 86.7442 166.583C88.3911 165.737 90.3896 164.802 92.6196 163.774C94.8496 162.746 97.311 161.673 99.8571 160.458C102.255 159.324 104.592 158.066 106.859 156.688C108.707 155.562 110.469 154.299 112.129 152.909C113.249 151.973 114.306 150.963 115.293 149.887C115.649 149.517 115.899 149.197 116.081 148.997L116.29 148.77L116.366 148.676Z" fill="#263238"/>
<path d="M63.6475 182.139V182.046C63.6475 181.97 63.6475 181.881 63.6475 181.766C63.6475 181.507 63.6875 181.147 63.7142 180.68C63.8858 179.326 64.158 177.987 64.5288 176.674C65.8965 172.072 67.759 167.632 70.0837 163.432V163.489C69.7944 159.314 69.3627 154.65 68.8641 149.745C67.9116 140.477 66.9146 132.109 66.1935 126.047C65.8285 123.029 65.5303 120.581 65.3033 118.876C65.2053 118.039 65.1297 117.381 65.0718 116.922L65.0184 116.415C65.0125 116.357 65.0125 116.299 65.0184 116.241C65.0365 116.296 65.0485 116.353 65.054 116.41C65.0718 116.535 65.0985 116.704 65.1341 116.918C65.1964 117.363 65.2899 118.026 65.4056 118.863C65.6326 120.568 65.9531 123.011 66.3537 126.029C67.1238 132.083 68.1342 140.451 69.1 149.718C69.5986 154.614 70.0259 159.297 70.2974 163.476V163.507V163.534C67.971 167.717 66.0898 172.133 64.6846 176.709C64.296 178.015 63.9985 179.346 63.7943 180.693C63.7543 181.138 63.7187 181.516 63.6964 181.77C63.6964 181.886 63.6964 181.979 63.6653 182.05C63.6636 182.081 63.6576 182.111 63.6475 182.139Z" fill="#263238"/>
<path d="M134.059 109.716C134.066 109.779 134.066 109.844 134.059 109.907C134.059 110.045 134.059 110.228 134.059 110.468C134.059 110.958 134.059 111.683 134.019 112.613C133.97 114.478 133.779 117.171 133.445 120.492C133.111 123.812 132.639 127.752 132.15 132.131C131.66 136.511 131.179 141.332 131.028 146.415C130.922 151.19 131.251 155.965 132.012 160.681C132.653 165.043 133.409 168.937 133.992 172.222C134.575 175.507 135.029 178.165 135.279 180.012C135.412 180.938 135.488 181.659 135.541 182.144C135.541 182.38 135.581 182.589 135.595 182.7C135.601 182.764 135.601 182.828 135.595 182.892C135.576 182.831 135.564 182.768 135.559 182.705C135.559 182.567 135.515 182.384 135.479 182.153C135.412 181.663 135.323 180.947 135.172 180.025C134.9 178.182 134.437 175.525 133.837 172.249C133.236 168.973 132.457 165.078 131.802 160.712C131.029 155.984 130.692 151.195 130.797 146.406C130.952 141.314 131.446 136.489 131.94 132.109C132.435 127.729 132.942 123.79 133.276 120.474C133.61 117.158 133.841 114.474 133.921 112.609C133.979 111.679 133.983 110.958 134.001 110.468C134.001 110.228 134.001 110.045 134.001 109.907C134.015 109.842 134.034 109.778 134.059 109.716Z" fill="#263238"/>
<g opacity="0.3">
<path d="M65.2275 117.941C63.9972 130.234 65.4225 142.648 69.4071 154.342L65.2275 117.941Z" fill="black"/>
</g>
<g opacity="0.3">
<path d="M109.85 160.472C104.384 165.492 98.8999 169.783 92.1743 172.173C97.2441 172.619 102.358 170.664 106.275 167.42C110.192 164.175 112.983 160.743 114.777 155.998L109.85 160.472Z" fill="black"/>
</g>
<path d="M103.623 166C103.578 165.955 106.979 162.835 111.216 159.034C115.453 155.233 118.925 152.193 118.965 152.242C119.005 152.291 115.609 155.406 111.372 159.207C107.134 163.009 103.667 166.049 103.623 166Z" fill="#263238"/>
<path d="M115.712 71.8016C115.712 72.3537 115.548 72.8935 115.241 73.3525C114.934 73.8116 114.498 74.1693 113.988 74.3804C113.478 74.5915 112.916 74.6465 112.375 74.5384C111.833 74.4304 111.336 74.1642 110.946 73.7734C110.556 73.3827 110.29 72.885 110.183 72.3433C110.076 71.8016 110.132 71.2404 110.344 70.7305C110.556 70.2206 110.914 69.785 111.374 69.4789C111.833 69.1728 112.373 69.0099 112.925 69.0107C113.292 69.0107 113.654 69.083 113.993 69.2233C114.331 69.3636 114.638 69.5692 114.897 69.8284C115.156 70.0876 115.361 70.3953 115.501 70.7339C115.641 71.0725 115.712 71.4353 115.712 71.8016Z" fill="#455A64"/>
<path d="M132.319 108.452C131.497 101.627 130.675 94.8018 129.853 87.9768L112.204 82.6355C111.861 94.8137 109.729 108.487 106.667 120.278C113.196 122.392 120.095 123.11 126.919 122.388C127.216 119.094 127.513 115.801 127.81 112.507C128.249 114.99 128.694 117.473 129.145 119.953C130.997 118.916 132.087 116.838 132.457 114.759C132.826 112.68 132.572 110.579 132.319 108.452Z" fill="#263238"/>
<path d="M118.507 122.481C118.507 122.481 118.507 122.397 118.56 122.228C118.614 122.059 118.658 121.783 118.734 121.476C118.89 120.808 119.117 119.838 119.41 118.596C119.989 116.09 120.844 112.471 121.676 107.953C122.692 102.664 123.334 97.309 123.599 91.9293C123.938 85.3496 123.339 78.7552 121.818 72.3445C120.314 65.92 117.53 59.8647 113.633 54.5402C113.188 53.9393 112.743 53.3295 112.244 52.7597C111.746 52.19 111.305 51.6336 110.802 51.1217L110.068 50.3428L109.32 49.5995C108.83 49.1009 108.323 48.6425 107.833 48.1796C105.852 46.3457 103.916 44.7344 102.185 43.2211C100.453 41.7077 98.9087 40.3145 97.6268 39.0103C97.3019 38.6854 97.0081 38.356 96.7366 38.0534C96.4651 37.7507 96.1669 37.4436 95.9176 37.1631C95.6684 36.8827 95.4146 36.5845 95.1832 36.313L94.5556 35.5118C94.1461 35.0133 93.839 34.5325 93.5496 34.1275C93.2603 33.7225 93.0467 33.3664 92.8731 33.0726L92.4814 32.4138C92.3924 32.2625 92.3523 32.1824 92.3523 32.1824C92.3523 32.1824 92.4057 32.2536 92.5036 32.4005L92.9131 33.0503C93.0912 33.3352 93.3137 33.6913 93.6075 34.0874C93.9013 34.4836 94.2128 34.9777 94.6268 35.4584L95.2589 36.2507L95.9977 37.0919C96.2514 37.3901 96.5274 37.6884 96.8256 37.9821C97.1239 38.2759 97.4132 38.6142 97.7426 38.9302C99.0245 40.2255 100.578 41.6009 102.314 43.1098C104.05 44.6187 105.99 46.2255 107.985 48.0505C108.474 48.4956 108.99 48.9763 109.48 49.4704L110.232 50.2137L110.971 50.9971C111.479 51.509 111.937 52.0832 112.422 52.6396C112.907 53.1959 113.361 53.8013 113.829 54.42C117.743 59.766 120.536 65.8477 122.041 72.3C123.57 78.7334 124.17 85.3526 123.821 91.956C123.546 97.3376 122.885 102.693 121.845 107.98C120.991 112.502 120.114 116.116 119.508 118.618C119.201 119.864 118.956 120.844 118.787 121.489C118.703 121.809 118.636 122.054 118.591 122.232C118.547 122.41 118.507 122.481 118.507 122.481Z" fill="#455A64"/>
</g>
<path d="M8.5535 100.419L5.13062 98.8878L25.5121 73.2229L28.8371 74.1443C29.3339 74.2812 29.7776 74.5651 30.1101 74.9588L33.4217 78.858C33.65 79.1274 33.7623 79.4764 33.7339 79.8284C33.7055 80.1804 33.5389 80.5069 33.2704 80.7363L10.3918 100.156C10.1417 100.37 9.83614 100.508 9.51071 100.554C9.18528 100.601 8.85334 100.554 8.5535 100.419Z" fill="#D20000"/>
<path d="M31.6681 98.6119L27.9648 101.728C27.7623 101.9 27.5175 102.016 27.2554 102.063C26.9934 102.11 26.7236 102.087 26.4737 101.995L23.6873 101.002C23.3401 100.873 23.0521 100.621 22.8772 100.294L7.7168 71.714L11.1352 72.7066C11.5759 72.8352 11.9691 73.0906 12.2658 73.441L31.8283 96.4887C32.0878 96.7919 32.2166 97.1855 32.1865 97.5834C32.1565 97.9813 31.9701 98.3511 31.6681 98.6119Z" fill="#D20000"/>
<g opacity="0.3">
<path d="M8.5535 100.419L5.13062 98.8878L25.5121 73.2229L28.8371 74.1443C29.3339 74.2812 29.7776 74.5651 30.1101 74.9588L33.4217 78.858C33.65 79.1274 33.7623 79.4764 33.7339 79.8284C33.7055 80.1804 33.5389 80.5069 33.2704 80.7363L10.3918 100.156C10.1417 100.37 9.83614 100.508 9.51071 100.554C9.18528 100.601 8.85334 100.554 8.5535 100.419Z" fill="black"/>
<path d="M31.6678 98.6119L27.9645 101.728C27.762 101.9 27.5172 102.016 27.2552 102.063C26.9931 102.11 26.7233 102.087 26.4734 101.995L23.687 101.002C23.3399 100.873 23.0518 100.621 22.8769 100.294L7.71655 71.714L11.135 72.7066C11.5757 72.8352 11.9689 73.0906 12.2656 73.441L31.8281 96.4887C32.0875 96.7919 32.2163 97.1855 32.1863 97.5834C32.1563 97.9813 31.9698 98.3511 31.6678 98.6119Z" fill="black"/>
</g>
<path d="M29.4542 77.5824L26.0902 73.6186C25.726 73.1894 25.0827 73.1367 24.6535 73.501L1.47457 93.1721C1.04535 93.5363 0.992697 94.1796 1.35695 94.6088L4.72091 98.5726C5.08516 99.0018 5.7284 99.0545 6.15761 98.6902L29.3366 79.0191C29.7658 78.6549 29.8184 78.0116 29.4542 77.5824Z" fill="#D20000"/>
<path d="M2.94903 75.4312L7.02147 71.975C7.20148 71.8223 7.43481 71.7473 7.67013 71.7665C7.90544 71.7858 8.12346 71.8977 8.27623 72.0778L28.0452 95.3721C28.2202 95.5782 28.306 95.8454 28.284 96.1148C28.2619 96.3842 28.1337 96.6339 27.9276 96.8088L23.9536 100.181C23.7475 100.356 23.4803 100.442 23.2109 100.42C22.9415 100.398 22.6918 100.27 22.5169 100.064L2.84582 76.8848C2.6709 76.6787 2.58503 76.4115 2.60708 76.1421C2.62914 75.8727 2.75732 75.623 2.96344 75.4481L2.94903 75.4312Z" fill="#D20000"/>
<path d="M9.44375 87.551C8.37291 88.6195 7.24829 89.6327 6.07428 90.5867C4.95034 91.6002 3.77519 92.5555 2.55347 93.4487C3.62469 92.3792 4.74928 91.3646 5.92294 90.4086C7.04723 89.3969 8.22236 88.4431 9.44375 87.551Z" fill="white"/>
<path d="M24.7956 74.4247C24.8401 74.4736 23.1398 75.9781 21.0077 77.7853C18.8756 79.5924 17.113 81.0123 17.073 80.9633C17.0329 80.9144 18.7243 79.4144 20.8608 77.6072C22.9973 75.8001 24.7555 74.3757 24.7956 74.4247Z" fill="white"/>
<path d="M10.205 83.8788C10.1561 83.9189 8.843 82.321 7.27177 80.318C5.70054 78.315 4.46758 76.6503 4.51655 76.6102C5.5558 77.7464 6.53632 78.9349 7.45426 80.1711C8.4348 81.3585 9.35295 82.5961 10.205 83.8788Z" fill="white"/>
<path d="M21.938 97.2321C20.8705 96.2492 19.8571 95.2091 18.9023 94.1164C17.889 93.0761 16.9336 91.9809 16.0403 90.8359C17.1044 91.8224 18.1176 92.8623 19.0759 93.9517C20.0871 94.994 21.0424 96.089 21.938 97.2321Z" fill="white"/>
<path d="M159.775 95.5808L159.067 92.9457L178.149 96.7469L195.005 73.0449L197.062 76.8728C197.22 77.1639 197.302 77.4898 197.302 77.8209C197.302 78.152 197.22 78.4779 197.062 78.769L182.427 105.56C182.166 106.036 181.813 106.455 181.388 106.793C180.963 107.13 180.475 107.379 179.953 107.525C179.43 107.671 178.883 107.711 178.345 107.643C177.807 107.574 177.288 107.399 176.818 107.127L162.05 98.5674C161.493 98.2437 161.005 97.8133 160.615 97.3007C160.224 96.7882 159.939 96.2037 159.775 95.5808Z" fill="#04BD00"/>
<g opacity="0.3">
<path d="M159.775 95.5808L159.067 92.9457L178.149 96.7469L195.005 73.0449L197.062 76.8728C197.22 77.1639 197.302 77.4898 197.302 77.8209C197.302 78.152 197.22 78.4779 197.062 78.769L182.427 105.56C182.166 106.036 181.813 106.455 181.388 106.793C180.963 107.13 180.475 107.379 179.953 107.525C179.43 107.671 178.883 107.711 178.345 107.643C177.807 107.574 177.288 107.399 176.818 107.127L162.05 98.5674C161.493 98.2437 161.005 97.8133 160.615 97.3007C160.224 96.7882 159.939 96.2037 159.775 95.5808Z" fill="black"/>
</g>
<path d="M159.121 91.6904L161.872 86.821C162.061 86.4848 162.371 86.2339 162.74 86.1196C163.108 86.0054 163.506 86.0366 163.852 86.2067L174.891 91.6148C175.244 91.7866 175.65 91.8149 176.024 91.6937C176.397 91.5725 176.709 91.3113 176.894 90.9649L187.844 70.4187C187.941 70.2364 188.074 70.0758 188.236 69.947C188.397 69.8181 188.583 69.7237 188.782 69.6695C188.982 69.6153 189.19 69.6025 189.395 69.6318C189.599 69.6611 189.795 69.732 189.971 69.8401L194.422 72.5775C194.753 72.7801 194.993 73.1018 195.093 73.4761C195.193 73.8504 195.146 74.2488 194.961 74.5894L180.646 100.766C180.184 101.613 179.406 102.243 178.482 102.52C177.558 102.798 176.562 102.7 175.71 102.248L159.726 93.7913C159.545 93.6965 159.385 93.5659 159.256 93.4076C159.127 93.2493 159.031 93.0665 158.975 92.8701C158.918 92.6738 158.902 92.4681 158.927 92.2654C158.952 92.0626 159.018 91.867 159.121 91.6904Z" fill="#04BD00"/>
<path d="M174.139 92.8611C173.935 92.8008 173.736 92.7219 173.547 92.6252L171.975 91.913C170.64 91.2988 168.833 90.4397 166.83 89.4783L165.366 88.775L164.671 88.4412C164.467 88.3283 164.241 88.2586 164.008 88.2364C163.794 88.2178 163.579 88.2425 163.374 88.309C163.17 88.3756 162.982 88.4826 162.82 88.6237C162.551 88.9014 162.333 89.2237 162.174 89.5762L161.315 91.0762C161.218 91.2644 161.103 91.4432 160.972 91.6103C161.041 91.4096 161.129 91.2158 161.235 91.0317L162.027 89.4961L162.294 88.9887C162.396 88.7963 162.53 88.623 162.691 88.4768C162.872 88.3168 163.084 88.195 163.313 88.1185C163.542 88.042 163.785 88.0125 164.026 88.0317C164.286 88.0528 164.539 88.1271 164.769 88.2498L165.464 88.5792L166.924 89.2691C168.926 90.2305 170.738 91.1163 172.042 91.7661L173.6 92.5451C173.788 92.6358 173.968 92.7415 174.139 92.8611Z" fill="white"/>
<path d="M178.185 91.9754C178.127 91.9442 180.446 87.3596 183.366 81.7379C186.286 76.1162 188.707 71.5761 188.752 71.6072C188.796 71.6384 186.491 76.2185 183.571 81.8447C180.651 87.4709 178.238 92.0021 178.185 91.9754Z" fill="white"/>
<defs>
<clipPath id="clip0_30_617">
<rect x="9.71362" width="180" height="180" rx="90" fill="white"/>
</clipPath>
</defs>
</svg>
