<svg width="31" height="29" viewBox="0 0 31 29" fill="none" xmlns="http://www.w3.org/2000/svg">
<path d="M13.5833 28.75C11.8125 28.75 10.1538 28.4136 8.60729 27.7406C7.06076 27.0677 5.71493 26.1587 4.56979 25.0136C3.42465 23.8684 2.51562 22.5226 1.84271 20.9761C1.16979 19.4295 0.833333 17.7709 0.833333 16C0.833333 14.2292 1.16979 12.5705 1.84271 11.024C2.51562 9.47745 3.43056 8.13162 4.5875 6.98648C5.74444 5.84134 7.09618 4.93231 8.64271 4.2594C10.1892 3.58648 11.8479 3.25002 13.6187 3.25002C14.2326 3.25002 14.8524 3.29724 15.4781 3.39169C16.1038 3.48613 16.7472 3.6278 17.4083 3.81669V6.08335C16.7944 5.84724 16.1687 5.67016 15.5312 5.5521C14.8937 5.43405 14.2562 5.37502 13.6187 5.37502C10.6674 5.37502 8.15278 6.40801 6.075 8.47398C3.99722 10.54 2.95833 13.0486 2.95833 16C2.95833 18.9514 3.99132 21.4601 6.05729 23.5261C8.12326 25.592 10.6319 26.625 13.5833 26.625C16.5347 26.625 19.0434 25.592 21.1094 23.5261C23.1753 21.4601 24.2083 18.9514 24.2083 16C24.2083 15.6459 24.1906 15.274 24.1552 14.8844C24.1198 14.4948 24.0549 14.0521 23.9604 13.5563H26.1208C26.1917 13.9577 26.2448 14.365 26.2802 14.7781C26.3156 15.1913 26.3333 15.5986 26.3333 16C26.3333 17.7709 25.9969 19.4295 25.324 20.9761C24.651 22.5226 23.742 23.8684 22.5969 25.0136C21.4517 26.1587 20.1059 27.0677 18.5594 27.7406C17.0128 28.4136 15.3542 28.75 13.5833 28.75ZM17.6917 21.9146L12.3083 16.5313V8.91669H14.4333V15.6813L19.1792 20.4271L17.6917 21.9146ZM23.9958 11.4313V7.00419H19.5333V4.87919H23.9958V0.416687H26.1208V4.87919H30.5833V7.00419H26.1208V11.4313H23.9958Z" fill="#757095"/>
</svg>
